<svg id="Layer_1" data-name="Layer 1" xmlns="http://www.w3.org/2000/svg" viewBox="0 0 115.82 21.64"><defs><style>.cls-1{fill:#fff;}.cls-2{fill:#4099f5;}</style></defs><title>1827019</title><path class="cls-1" d="M115.73,21l-5.26-6.22-.31-.36h0l-1.66-1.91-3.27-3.86a.55.55,0,0,0-.42-.18h-3a.53.53,0,0,0-.45.22.35.35,0,0,0,0,.43l5,5.87L101,21a.35.35,0,0,0,0,.43.53.53,0,0,0,.45.22h2.76a.55.55,0,0,0,.41-.17l3.68-4.21,3.55,4.2a.55.55,0,0,0,.42.18h3.06a.53.53,0,0,0,.45-.22A.35.35,0,0,0,115.73,21Z"/><path class="cls-2" d="M110,10.75h0l1.75,1.82h0l.33.34h0l3.34-3.78a.35.35,0,0,0,0-.43.53.53,0,0,0-.45-.22h-2.74a.55.55,0,0,0-.41.17"/><path class="cls-2" d="M17.53,21.64H14.59a.53.53,0,0,1-.55-.51V9a.53.53,0,0,1,.55-.51h2.94a.53.53,0,0,1,.55.51V21.13A.53.53,0,0,1,17.53,21.64Z"/><path class="cls-1" d="M46.44,12a6.83,6.83,0,0,0-3.13-1.86A7.12,7.12,0,0,0,45.85,8a5.51,5.51,0,0,0,1-3.08A4.37,4.37,0,0,0,46,2.35,5.08,5.08,0,0,0,43.58.58,19.84,19.84,0,0,0,37.65,0H31.38A.53.53,0,0,0,31,.14a.45.45,0,0,0-.15.33V21.18a.45.45,0,0,0,.15.33.53.53,0,0,0,.36.14h7.08a14.13,14.13,0,0,0,5.75-.84,6.57,6.57,0,0,0,2.66-2.25,5.4,5.4,0,0,0,.94-3A5.16,5.16,0,0,0,46.44,12Zm-7.66,6.62H35V12h1.76a12.13,12.13,0,0,1,4.29.55,4.63,4.63,0,0,1,2,1.38,2.83,2.83,0,0,1,.63,1.78,2.64,2.64,0,0,1-1,2C42.06,18.3,40.78,18.65,38.78,18.64ZM37.41,9H35V3h3.47a6,6,0,0,1,3.47.72,2,2,0,0,1,.88,1.64,3.17,3.17,0,0,1-.6,1.8,3.85,3.85,0,0,1-1.61,1.35A8,8,0,0,1,37.41,9Z"/><path class="cls-1" d="M62.42,10.13a9.49,9.49,0,0,0-10.74,0A5.77,5.77,0,0,0,49.44,15,5.79,5.79,0,0,0,51.68,20a9.49,9.49,0,0,0,10.74,0A5.79,5.79,0,0,0,64.66,15,5.77,5.77,0,0,0,62.42,10.13Zm-5.36,9.06a3.8,3.8,0,0,1-2.87-1.1,4.15,4.15,0,0,1-1.12-3,4.13,4.13,0,0,1,1.12-3,4.26,4.26,0,0,1,5.71,0A4.13,4.13,0,0,1,61,15a4.15,4.15,0,0,1-1.12,3A3.78,3.78,0,0,1,57.06,19.19Z"/><path class="cls-1" d="M98.32,18.57a.54.54,0,0,0-.36-.14H87.41v-7h8.44a.53.53,0,0,0,.36-.14.45.45,0,0,0,.15-.33V8.94a.45.45,0,0,0-.15-.33.54.54,0,0,0-.36-.14H87.41V3.21H98a.53.53,0,0,0,.36-.14.45.45,0,0,0,.15-.33V.47a.45.45,0,0,0-.15-.33A.54.54,0,0,0,98,0H83.82a.53.53,0,0,0-.36.14.45.45,0,0,0-.15.33V21.18a.45.45,0,0,0,.15.33.53.53,0,0,0,.36.14H98a.53.53,0,0,0,.36-.14.45.45,0,0,0,.15-.33V18.9A.45.45,0,0,0,98.32,18.57Z"/><path class="cls-2" d="M24.55,21.64H21.61a.53.53,0,0,1-.55-.51V.51A.53.53,0,0,1,21.61,0h2.94a.53.53,0,0,1,.55.51V21.13A.53.53,0,0,1,24.55,21.64Z"/><path class="cls-2" d="M10.51,21.64H7.57A.53.53,0,0,1,7,21.13v-7a.53.53,0,0,1,.55-.51h2.94a.53.53,0,0,1,.55.51v7A.53.53,0,0,1,10.51,21.64Z"/><path class="cls-2" d="M3.49,21.64H.55A.53.53,0,0,1,0,21.13V6a.53.53,0,0,1,.55-.51H3.49A.53.53,0,0,1,4,6V21.13A.53.53,0,0,1,3.49,21.64Z"/><path class="cls-1" d="M80.38,21l-5.26-6.22-.31-.36h0l-1.66-1.91L69.87,8.65a.55.55,0,0,0-.42-.18h-3a.53.53,0,0,0-.45.22.35.35,0,0,0,0,.43L71,15l-5.32,6a.35.35,0,0,0,0,.43.53.53,0,0,0,.45.22h2.76a.55.55,0,0,0,.41-.17l3.68-4.21,3.55,4.2a.55.55,0,0,0,.42.18H80a.53.53,0,0,0,.45-.22A.35.35,0,0,0,80.38,21Z"/><path class="cls-2" d="M74.7,10.75h0l1.75,1.82h0l.33.34h0l3.34-3.78a.35.35,0,0,0,0-.43.53.53,0,0,0-.45-.22H77a.55.55,0,0,0-.41.17"/></svg>